<?xml version='1.0' encoding='utf-8'?>
<!-- Generator: imaengine 6.0   -->
<svg xmlns:xlink="http://www.w3.org/1999/xlink" xmlns="http://www.w3.org/2000/svg" viewBox="0,0,1430,1430" style="enable-background:new 0 0 1430 1430;" version="1.1">
<defs/>
<g id="layer0">
<path d="M0,0L1430,0L1430,1430L0,1430L0,0Z" fill-rule="evenodd" fill="#FFFFFF"/>
</g>
<g id="layer1">
<path d="M0,715L0,0L715,0L1430,0L1430,715L1430,1430L715,1430L0,1430L0,715ZM934.767,1224.39C949.604,1220.53 959.62,1211.09 965.578,1195.36C967.233,1190.99 967.452,1186.34 967.767,1148.97C968.06,1114.31 967.861,1106.21 966.565,1099.99C962.652,1081.23 951.777,1069.75 933.907,1065.54C925.443,1063.54 907.182,1063.54 899.535,1065.53C883.825,1069.62 873.084,1080.48 867.409,1098C864.882,1105.8 864.06,1173.17 866.331,1186.33C870.553,1210.79 884.334,1223.43 910,1226.36C915.419,1226.98 928.926,1225.9 934.767,1224.39ZM314.201,1224.89C329.952,1221.6 341.318,1209.85 344.87,1193.2C346.564,1185.26 346.453,1067.4 344.75,1066.34C342.628,1065.03 319.109,1065.49 317.725,1066.87C316.797,1067.8 316.379,1082.58 316,1127.83L315.5,1187.56L312.988,1192.44C309.819,1198.59 304.794,1201.46 297.369,1201.35C291.733,1201.27 286.482,1198.72 284.159,1194.92C279.562,1187.42 279.579,1187.65 279.026,1125.51L278.5,1066.51L272.641,1065.69C269.418,1065.24 263.343,1065.24 259.141,1065.69L251.5,1066.5L251.513,1129.5C251.526,1192.32 251.532,1192.52 253.767,1198.42C259.267,1212.94 267.446,1220.8 281,1224.57C286.692,1226.15 307.219,1226.35 314.201,1224.89ZM432.201,1224.88C447.328,1221.67 457.553,1210.67 461.594,1193.26C463.76,1183.92 463.974,1172.24 462,1170.98C460.073,1169.76 440.893,1169.71 437.703,1170.92C435.628,1171.71 435.177,1172.72 434.591,1177.9C433.023,1191.76 428.825,1198.89 420.994,1201C415.54,1202.47 409.048,1200.69 405.188,1196.66C400.053,1191.3 399.11,1185.59 398.464,1156C397.806,1125.8 398.988,1106.08 401.844,1099.62C407.939,1085.84 425.977,1085.49 431.401,1099.04C432.292,1101.27 433.437,1106.03 433.945,1109.62C434.453,1113.2 435.403,1116.78 436.057,1117.57C437.886,1119.77 461.541,1119.64 462.393,1117.42C464.353,1112.31 461.631,1093.49 457.718,1085.08C454.451,1078.06 445.619,1069.76 438.493,1067.02C431.048,1064.16 413.233,1063.1 403.779,1064.96C386.275,1068.41 374.632,1080.84 370.504,1100.5C368.392,1110.56 368.358,1178.47 370.461,1189.46C372.331,1199.23 376.868,1208.42 382.81,1214.45C391.121,1222.89 399.69,1225.83 416.201,1225.93C422.086,1225.97 429.286,1225.49 432.201,1224.88ZM1062.5,1224.5C1071.58,1222.34 1084.04,1215.76 1088.75,1210.65C1092.36,1206.73 1092.89,1205.52 1093.52,1199.65C1094.39,1191.51 1093.6,1145.16 1092.55,1142.75C1091.86,1141.16 1089.84,1141 1071.09,1141C1056.33,1141 1050.06,1141.34 1049.2,1142.2C1048.42,1142.98 1048,1147.03 1048,1153.72L1048,1164.05L1050.75,1165.11C1052.32,1165.72 1055.93,1165.9 1059.14,1165.55L1064.78,1164.93L1065.89,1168.11C1066.5,1169.86 1067,1175.21 1067,1180C1067,1190.5 1065.16,1194.01 1057.63,1197.89C1047.56,1203.07 1035.3,1201.52 1028.92,1194.26C1022.43,1186.86 1022.5,1187.42 1022.5,1145C1022.5,1106.76 1022.52,1106.47 1024.82,1101.79C1029.36,1092.57 1037.34,1088.25 1047.85,1089.33C1053.41,1089.9 1058.69,1092.73 1061.09,1096.43C1061.82,1097.57 1063.59,1101.88 1065.01,1106L1067.58,1113.5L1073.04,1114.16C1076.04,1114.52 1081.82,1114.57 1085.89,1114.26L1093.27,1113.7L1092.74,1103.6C1092.08,1091.17 1089.56,1083.95 1083.54,1077.26C1075.3,1068.09 1063.82,1064.05 1045.91,1064.02C1031.41,1063.99 1018.36,1067.83 1009.18,1074.81C1004.2,1078.61 998.233,1087.57 995.782,1094.94C993.724,1101.13 993.577,1103.69 993.201,1140C992.755,1183.01 993.402,1191.11 998.068,1200.98C1003.56,1212.59 1014.6,1221.49 1027.34,1224.58C1034.47,1226.31 1055.1,1226.26 1062.5,1224.5ZM1245.16,1222.32C1259.72,1215.47 1266.48,1203.33 1268.59,1180.26C1269.52,1170.14 1269.34,1170 1255.63,1170.01C1239.74,1170.03 1240.43,1169.65 1239.01,1179.34C1238.35,1183.83 1237.16,1189.08 1236.36,1191C1230.41,1205.23 1211.59,1205.08 1205.38,1190.75C1203.72,1186.93 1203.5,1182.82 1203.2,1150.34C1202.85,1112.07 1203.33,1105.88 1207.26,1098.06C1210.3,1092.01 1213.48,1089.94 1220.6,1089.36C1231.7,1088.45 1236.71,1093.77 1239.11,1109C1239.77,1113.12 1240.74,1117.06 1241.27,1117.75C1241.94,1118.61 1245.54,1119 1252.87,1118.99C1268.42,1118.97 1268,1119.2 1267.98,1110.63C1267.96,1102.31 1265.95,1091.94 1263.11,1085.52C1260.09,1078.68 1252.01,1070.73 1244.72,1067.43C1239.21,1064.93 1237.07,1064.56 1225.95,1064.19C1211.47,1063.71 1204.66,1064.83 1196.13,1069.09C1185.1,1074.61 1177.85,1085.42 1174.58,1101.25C1172.31,1112.27 1172.28,1177.48 1174.54,1188.79C1177.47,1203.39 1184.98,1214.95 1195.14,1220.48C1203.44,1225 1208.88,1225.96 1224.5,1225.7C1237.86,1225.47 1238.8,1225.31 1245.16,1222.32ZM234.719,1223.55C236.466,1222.88 236.539,1199.94 234.8,1198.2C233.966,1197.37 228.248,1196.97 216.05,1196.9C206.398,1196.85 197.375,1196.49 196,1196.11L193.5,1195.41L193,1130.96L192.5,1066.5L185.28,1065.66C181.309,1065.2 175.234,1065.2 171.78,1065.66L165.5,1066.5L165.5,1144.99L165.5,1223.48L168.431,1223.99C172.087,1224.63 232.969,1224.23 234.719,1223.55ZM593.324,1222.75C592.21,1221.51 582.587,1203.4 571.938,1182.5C546.391,1132.36 547.772,1135.3 548.575,1132.71C548.953,1131.5 552.736,1124.65 556.982,1117.5C561.228,1110.35 569.089,1096.85 574.452,1087.5C579.815,1078.15 585.395,1069.21 586.851,1067.63L589.5,1064.77L573.5,1065.26C564.7,1065.53 556.798,1066.05 555.941,1066.41C554.214,1067.14 554.099,1067.33 534.044,1102C526.251,1115.47 518.891,1129.31 517.69,1132.75C515.292,1139.61 513.377,1141.14 514.47,1135.31C515.261,1131.09 515.221,1066.89 514.427,1066.09C514.14,1065.81 508.351,1065.57 501.563,1065.57C492.733,1065.57 488.763,1065.95 487.611,1066.91C486.155,1068.12 486,1075.64 486,1144.92C486,1203.23 486.288,1221.89 487.2,1222.8C488.859,1224.46 512.141,1224.46 513.8,1222.8C514.641,1221.96 515.006,1216.34 515.02,1204.05C515.047,1180.93 515.801,1176.22 520.889,1167.41C523.142,1163.52 525.271,1158.89 525.622,1157.14C526.531,1152.6 527.657,1152.44 528.271,1156.77C528.836,1160.76 556.139,1219.49 558.598,1222C559.727,1223.16 563.676,1223.63 575.782,1224.05C584.427,1224.35 592.366,1224.69 593.424,1224.8C595.287,1224.99 595.284,1224.93 593.324,1222.75ZM666.687,1222.75C667.131,1222.06 667.746,1207.1 668.055,1189.5L668.617,1157.5L677.39,1137C682.216,1125.72 690.215,1106.6 695.166,1094.5C700.118,1082.4 705.055,1070.75 706.138,1068.62L708.107,1064.73L692.009,1065.2C679.883,1065.55 675.576,1066.01 674.555,1067.08C672.47,1069.26 654.928,1123.3 654.287,1129.51C653.975,1132.53 653.425,1135 653.063,1135C652.702,1135 651.919,1132.16 651.324,1128.68C650.244,1122.37 634.603,1076.63 631.262,1070C629.109,1065.73 626.495,1065.18 607.72,1065.07L594.94,1065L596.959,1067.75C598.07,1069.26 607.634,1090.08 618.213,1114L637.448,1157.5L637.974,1189.5C638.263,1207.1 638.864,1222.06 639.309,1222.75C639.887,1223.64 643.793,1224 653,1224C662.209,1224 666.112,1223.64 666.687,1222.75ZM848.91,1222.61C849.679,1221.68 849.971,1217.25 849.783,1209.36L849.5,1197.5L829.299,1197C816.85,1196.69 808.684,1196.09 808.02,1195.42C807.272,1194.67 806.956,1175.07 806.985,1131.31C807.022,1075.91 806.842,1068.11 805.497,1067C803.787,1065.58 784.085,1065.1 780.25,1066.38L778,1067.13L778,1143.99C778,1186.25 778.273,1221.55 778.607,1222.42C779.144,1223.82 783.157,1224 813.485,1224C841.544,1224 847.964,1223.75 848.91,1222.61ZM1147.38,1220.88C1147.72,1219.16 1148,1183.84 1148,1142.39L1148,1067.04L1145.25,1066.27C1142.02,1065.37 1122.57,1065.53 1121.05,1066.47C1119.45,1067.46 1119.6,1221.2 1121.2,1222.8C1122,1223.6 1126.44,1224 1134.58,1224L1146.75,1224L1147.38,1220.88ZM437.623,981.865C443.182,980.465 443.713,979.68 451.268,961.689C479.951,893.383 492.374,810.896 482.395,755C476.42,721.532 465.339,697.13 433.349,647C412.012,613.563 409.605,609.485 399.994,590.5C382.236,555.419 373.747,527.097 368.974,487C360.348,414.55 381.438,334.284 424.546,275.5C462.08,224.318 517.508,187.674 587,168.103C605.855,162.792 617.141,160.488 636.598,157.976C683.119,151.97 726.863,153.255 770.937,161.923C830.956,173.726 882.244,199.954 920.518,238.418C962.21,280.317 984.834,324.93 996.372,388C1002.44,421.183 1002.46,437.904 996.473,474.687C993.592,492.383 993.461,496.459 995.515,504.54C998.006,514.339 1003.16,523.53 1017.1,543.014C1046.62,584.28 1065.25,611.321 1067.18,615.674C1070.14,622.372 1069.45,631.414 1065.58,636.485C1061.32,642.073 1055.18,645.463 1045.8,647.418C1033.41,649.998 1031.4,650.8 1027.48,654.715C1018.01,664.19 1017.98,677.084 1027.36,702.731C1031.72,714.675 1030.87,718.373 1022.52,723.65C1019.93,725.284 1018,727.259 1018,728.279C1018,729.257 1019.36,732.75 1021.02,736.041C1027.04,747.973 1026.11,754.591 1017.04,764.322C1004.99,777.236 1003.79,784.189 1008.41,814.372C1011.41,833.991 1007.58,848.348 996.367,859.566C987.574,868.359 973.822,874.604 957.705,877.121C947.09,878.779 908.892,877.605 891.5,875.085C870.233,872.005 852.237,871.371 842.645,873.366C832.246,875.528 827.568,877.732 821.236,883.454C811.346,892.391 807.178,901.842 799.167,933.5C789.883,970.189 788.407,980.077 791.934,981.965C795.69,983.975 806.666,982.819 812.775,979.77C814.347,978.986 815.527,976.914 816.592,973.068C825.505,940.876 832.685,918.919 836.338,912.686C843.538,900.4 856.473,897.566 885.06,902.009C945.675,911.432 983.102,907.374 1009.53,888.516C1020.48,880.702 1026.91,872.031 1034.19,855.285C1039.73,842.512 1040.36,827.622 1036.08,810C1033.58,799.701 1033.41,791.065 1035.62,786.7C1036.52,784.94 1040.12,780.502 1043.63,776.837C1054.71,765.281 1056.28,758.082 1051,743L1048.03,734.5L1050.03,732C1057.94,722.138 1058,722.012 1058,715.038C1058,710.274 1057.15,705.846 1055,699.5C1051.28,688.507 1051.06,681.67 1054.25,677.019C1056.7,673.455 1058.62,672.299 1073.18,665.628C1084.74,660.332 1090.79,654.802 1095.09,645.612C1100.19,634.72 1100.11,618.382 1094.88,604.419C1093.67,601.163 1085.42,588.488 1074.28,572.745C1027.73,506.957 1028.01,507.387 1025.36,497.5C1023.52,490.603 1023.66,485.826 1026.07,474.36C1031.63,447.873 1032.38,429.15 1028.99,401.425C1022.46,348.069 1006.32,301.342 981.502,264.012C925.809,180.228 843.334,135.397 726.7,125.509C704.17,123.599 686.925,123.601 662.685,125.515C619.425,128.932 588.786,135.005 552.5,147.356C521.994,157.739 499.189,168.74 475.5,184.5C401.62,233.651 352.526,316.626 341.072,411.703C338.202,435.529 338.196,468.61 341.058,491.232C348.296,548.448 366.074,594.938 402.344,651.5C407.282,659.2 415.286,671.697 420.131,679.271C447.987,722.812 457.259,753.029 457.332,800.5C457.407,849.907 445.434,904.826 423.361,956.315C416.743,971.75 415.88,977.862 419.861,981.087C422.616,983.319 430.479,983.664 437.623,981.865ZM573.527,690.75C576.403,688.079 578.182,684.385 583.525,670C593.891,642.093 611.581,608.321 621.446,597.608L625.03,593.716L631.931,594.357C644.2,595.497 656.324,592.205 671.5,583.611C675.35,581.431 680.525,578.864 683,577.906C686.739,576.459 687.162,576.051 685.5,575.489C679.658,573.514 677.627,572.452 672.807,568.856C669.906,566.692 666.619,564.691 665.502,564.411C664.385,564.131 660.944,565.019 657.854,566.386C651.186,569.335 638.988,572.006 632.292,571.984C629.656,571.976 624.8,571.317 621.5,570.52C609.398,567.598 606.91,568.762 605.511,578C604.695,583.387 600.28,592.439 592.831,604C577.883,627.197 565.363,653.364 559.452,673.764C556.605,683.586 557.194,688.434 561.659,691.946C565.499,694.967 569.413,694.573 573.527,690.75ZM546.419,643.393C547.354,643.034 549.073,639.252 550.622,634.143C552.063,629.389 553.818,624.375 554.521,623L555.799,620.5L547.663,620.834C520.168,621.961 497.846,605.561 496.236,583.05C495.672,575.165 494.942,576.237 507,567.223C513.365,562.465 518.253,555.917 516.64,554.309C516.193,553.864 506.979,553.469 496.164,553.43C480.945,553.377 475.46,553.002 471.901,551.774C453.694,545.491 441.517,532.78 437.54,515.907C435.611,507.725 435.597,498.968 437.5,491.661C439.873,482.549 439.504,480.174 434.538,472.613C426.895,460.977 425.606,456.488 425.604,441.5C425.6,423.031 428.852,412.667 439.377,397.597L443.5,391.695L443.596,374.597C443.677,360.24 444.034,356.352 445.825,350.34C450.991,332.994 463.049,319.476 481.685,310.136C488.898,306.522 491.287,303.583 496.361,292.084C500.991,281.589 505.072,275.989 514.411,267.311C527.027,255.59 538.668,249.995 554.694,247.95C559.538,247.332 564.893,246.633 566.597,246.396C568.857,246.083 572.099,243.586 578.597,237.155C592.03,223.859 603.797,219.056 623.04,219.017C632.948,218.997 640.597,220.758 648.978,224.989C655.962,228.515 659.243,228.737 664.016,226.007C681.924,215.766 691.073,212.994 706.91,213.012C723.826,213.031 735.203,217.207 748.331,228.217C757.608,235.997 758.703,236.371 768.398,235.066C799.885,230.828 825.241,241.813 841.659,266.806C844.8,271.588 847.484,275.66 847.624,275.856C847.764,276.051 851.843,277.326 856.689,278.689C884.93,286.631 900.995,303.886 903.533,329C904.771,341.25 905.369,342.448 913.134,348.235C921.27,354.298 927.989,362.681 930.858,370.349C937.527,388.174 937.505,409.992 930.806,423.812C929.556,426.39 925.468,431.56 921.723,435.299C917.978,439.039 914.49,443.212 913.972,444.573C913.455,445.933 912.612,451.424 912.1,456.773C911.587,462.123 910.829,467.4 910.414,468.5C909.704,470.385 909.771,470.406 911.58,468.86C912.636,467.958 917.1,465.42 921.5,463.219C938.022,454.957 946.472,446.688 953.399,432C958.461,421.269 960.155,414.079 960.703,401C961.091,391.741 960.764,387.454 959.027,379C955.031,359.56 949.772,349.779 935.806,335.808C927.886,327.886 925.996,325.414 925.479,322.305C922.443,304.023 916.419,290.155 907.014,279.798C897.465,269.283 886.958,262.953 866.894,255.627C863.003,254.206 861.259,252.566 855.65,245.054C843.721,229.08 829.516,219.155 810.307,213.374C802.567,211.044 799.138,210.649 782,210.111L762.5,209.5L756,204.191C748.668,198.202 738.477,193.003 728.94,190.386C724.142,189.069 718.676,188.611 707.5,188.59C690.317,188.558 681.483,190.284 667,196.501C657.508,200.576 657.531,200.576 642.622,196.621C616.427,189.671 587.146,196.437 567.593,213.956C563.244,217.853 558.744,221.242 557.593,221.488C556.442,221.735 551.643,222.625 546.929,223.467C514.685,229.225 490.763,247.629 475.155,278.688C472.891,283.192 470.018,287.593 468.77,288.468C467.521,289.344 462.92,292.348 458.545,295.143C438.572,307.907 425.374,326.73 420.432,349.5C419.316,354.639 418.615,362.785 418.471,372.277L418.247,387.054L414.776,392.283C407.549,403.167 404.017,412.656 401.427,428.148C398.544,445.386 400.611,459.463 408.231,474.5L412.285,482.5L412.484,500.5C412.703,520.244 414.059,527.24 419.917,538.829C428.59,555.986 441.475,567.142 461,574.399C470.531,577.942 470.282,577.576 472.959,591.949C475.434,605.233 484.402,619.594 495.249,627.639C503.314,633.622 515.521,639.475 525,641.906C532.419,643.808 543.358,644.567 546.419,643.393ZM796.5,599.651C812.318,588.738 816.833,585.337 838.326,568.154C863.001,548.426 870.258,541.3 874.478,532.652C878.146,525.138 889.585,482.288 894.408,458C895.773,451.125 897.609,443.475 898.488,441L900.087,436.5L895.793,440.687C893.432,442.99 882.5,450.976 871.5,458.433C840.378,479.53 836.495,482.57 830.639,490.425C820.115,504.543 817.371,510.959 800.08,561.88C793.031,582.639 786.16,601.395 784.811,603.561C780.559,610.391 780.561,610.387 782.095,609.465C782.868,609 789.35,604.584 796.5,599.651ZM767.998,600.501C771.294,598.796 775.305,593.914 777.038,589.496C777.684,587.848 781.362,577.5 785.212,566.5C805.606,508.226 806.637,504.141 803.594,493.676C800.98,484.683 795.618,479.143 777,466.195C739.084,439.828 728.07,433 723.456,433C721.059,433 717.578,434.901 709.755,440.48C698.309,448.644 695.354,451.882 691.6,460.369C690.06,463.852 686.421,468.829 682,473.5C673.96,481.994 672.112,485.611 665.848,505.109C662.274,516.233 661.542,519.854 661.523,526.5C661.503,533.463 661.872,535.171 664.369,539.677C665.947,542.525 668.422,545.971 669.869,547.336C673.433,550.698 738.478,595.675 743.5,598.251C745.7,599.379 748.625,600.645 750,601.065C754.424,602.416 764.932,602.086 767.998,600.501ZM567.858,529.823C577.002,522.927 581.968,517.989 588.267,509.528C605.713,486.09 613.949,455.214 614.012,413C614.022,406.125 614.467,399.825 615,399C615.705,397.908 615.974,398.725 615.988,402C616.016,409.098 618.035,423.804 620.107,432C622.61,441.903 630.673,458.31 635.964,464.266C647.253,476.973 662.74,478.59 673.105,468.145C677.6,463.614 678.57,461.534 681.923,449.243C682.972,445.4 683.688,444.684 689.292,441.877C698.356,437.336 703.478,432.765 706.559,426.468C708.96,421.561 709.206,420.113 708.806,413.21C707.678,393.72 695.436,381.843 671.305,376.823C661.335,374.75 653.113,374.698 627.5,376.55C615.207,377.439 620.411,375.349 635.11,373.493C661.858,370.117 676.026,366.56 689.327,359.88C708.467,350.267 716.631,340.252 715.812,327.392C715.067,315.693 707.115,307.219 692.8,302.87C684.619,300.386 683.265,299.119 680.162,291.05C671.598,268.772 646.674,263.137 632.611,280.299C624.345,290.386 618.992,306.921 611.413,345.776C609.345,356.379 607.313,364.704 606.898,364.276C606.483,363.849 606.772,357.65 607.54,350.5C612.216,306.959 605.449,280.638 586.995,270.594C572.033,262.45 556.174,268.837 547.188,286.624C543.433,294.055 542.028,295.241 533.778,297.943C525.724,300.581 518.255,306.798 515.115,313.478C512.63,318.766 512.269,328.346 514.369,333.282C520.305,347.23 558.44,367.83 586.358,372.17C598.973,374.132 593.075,375.339 567,376.132C548.159,376.705 541.815,377.267 535,378.965C518.808,382.998 505.971,391.309 501.451,400.683C500.439,402.783 499.421,407.313 499.189,410.752C498.441,421.838 504.072,429.986 517.351,437.03C522.184,439.594 523.269,441.339 524.998,449.325C527.159,459.31 533.905,468.774 541,471.776C546.121,473.943 556.783,473.632 562.389,471.152C568.169,468.595 576.995,460.341 582.331,452.5C590.841,439.996 598.959,417.959 601.1,401.549C602.27,392.58 602.487,391.939 603.297,395.049C604.251,398.715 602.663,429.425 600.92,441C598.436,457.5 591.819,477.019 584.84,488.429C576.808,501.562 567.885,509.791 555.481,515.506C551.62,517.284 547.857,519.467 547.119,520.357C545.387,522.443 546.375,526.474 549.683,530.821C554.41,537.033 558.602,536.803 567.858,529.823ZM825.862,470.448C828.736,469.595 833.43,467.517 836.294,465.83C848.436,458.678 892.304,428.418 895.03,425.313C898.292,421.598 898.819,417.7 896.841,411.899C894.158,404.026 890.511,400.584 868.808,385.441C857.089,377.264 839.976,365.309 830.779,358.875C809.821,344.211 805.08,341.83 795.673,341.241C786.8,340.686 781.895,342.39 769.977,350.168C734.842,373.099 720.293,382.891 719,384.479C717.144,386.757 717.099,399.42 718.923,405.91C720.649,412.049 726.929,418.088 742.5,428.584C749.65,433.404 764.407,443.346 775.292,450.678C806.695,471.83 812.962,474.279 825.862,470.448ZM838,330.565C838,327.327 834.294,314.317 832.03,309.61C822.61,290.022 800.999,276.776 783.788,280.04C781.005,280.568 778.565,281 778.366,281C776.996,281 770,288.593 770,290.081C770,292.806 772.86,293.898 782.687,294.922C802.751,297.012 816.571,305.272 830.558,323.533C835.45,329.92 838,332.33 838,330.565ZM909.637,1200.59C904.653,1198.74 900.564,1194.78 897.747,1189.06C895.566,1184.63 895.491,1183.46 895.191,1149.19C894.854,1110.57 895.281,1106.1 900.024,1098.62C903.665,1092.88 907.803,1090.29 914.72,1089.43C925.331,1088.1 932.488,1092.27 937.199,1102.5C939.433,1107.36 939.509,1108.48 939.81,1141.24C940.149,1178.01 939.635,1182.83 934.436,1191.7C929.781,1199.64 918.233,1203.78 909.637,1200.59ZM822.845,549.559C820.753,544.967 825.584,532.684 831.392,527.829C834.409,525.307 840.626,525.432 842.023,528.043C844.052,531.835 840.655,540.366 834.645,546.572C828.61,552.802 824.766,553.775 822.845,549.559ZM855.062,506.575C852.096,503.001 858.152,490.075 865.178,484.986C872.006,480.04 875.711,481.66 874.707,489.151C873.424,498.714 859.09,511.428 855.062,506.575ZM747.352,573.918C742.757,572.572 738.269,566.974 737.46,561.581C736.513,555.267 739.746,548.569 744.496,547.001C751.706,544.622 760.897,550.192 763.069,558.257C765.81,568.437 757.366,576.851 747.352,573.918ZM687.143,535.467C680.907,530.22 680.263,518.834 685.917,513.782C692.463,507.934 701.328,511.659 704.065,521.409C705.489,526.478 704.553,531.19 701.371,534.971C697.954,539.032 691.641,539.252 687.143,535.467ZM728,526.302C721.499,522.954 718.144,512.49 721.494,506.011C723.693,501.759 726.822,500 732.188,500C747.945,500 750.888,525.735 735.348,527.634C732.812,527.944 730.307,527.49 728,526.302ZM770.895,519.298C769.463,519.076 766.784,517.341 764.942,515.44C761.986,512.39 761.546,511.227 761.181,505.508C760.778,499.169 760.847,498.953 764.412,495.388C767.734,492.066 768.436,491.789 772.408,492.237C780.201,493.115 785,498.723 785,506.951C785,512.555 782.582,516.859 778.466,518.579C776.595,519.36 774.712,519.933 774.282,519.85C773.852,519.768 772.328,519.519 770.895,519.298ZM706.547,477.907C697.257,469.75 700.689,454.578 712.117,453.29C720.083,452.392 726.327,457.329 727.552,465.495C728.984,475.049 724.32,481 715.4,481C710.868,481 709.542,480.537 706.547,477.907ZM803.411,447.109C793.879,441.296 793.445,430.988 802.606,427.965C807.004,426.513 813.272,427.387 817.586,430.053C824.085,434.07 824.693,443.387 818.696,447.044C814.561,449.565 807.489,449.595 803.411,447.109ZM847.5,422.796C839.981,420.175 836.237,412.793 839.567,407.156C841.758,403.447 844.821,402 850.482,402C859.369,402 865,406.431 865,413.424C865,418.706 862.903,421.655 858.221,422.956C853.722,424.205 851.444,424.171 847.5,422.796ZM754.02,412.248C750.218,410.338 746,404.83 746,401.775C746,400.714 747.315,398.531 748.923,396.923C752.634,393.212 758.528,392.966 765.035,396.25C769.913,398.712 771.963,401.786 771.985,406.677C772.016,413.262 762.135,416.326 754.02,412.248ZM795.209,387.332C782.681,381.158 787.349,368.623 801.454,370.562C811.329,371.921 816.761,381.896 810.365,386.927C807.12,389.48 799.955,389.672 795.209,387.332Z" fill-rule="evenodd" fill="#000000"/>
</g>
</svg>
