<?xml version='1.0' encoding='utf-8'?>
<!-- Generator: imaengine 6.0   -->
<svg xmlns:xlink="http://www.w3.org/1999/xlink" xmlns="http://www.w3.org/2000/svg" viewBox="0,0,1430,1257" style="enable-background:new 0 0 1430 1257;" version="1.1">
<defs/>
<g id="layer0">
<path d="M0,0L1430,0L1430,1257L0,1257L0,0Z" fill-rule="evenodd" fill="#FFFFFF"/>
</g>
<g id="layer1">
<path d="M0,628L0,0L715,0L1430,0L1430,628L1430,1256L715,1256L0,1256L0,628ZM345.483,1224.46C352.423,1222.65 353.515,1221.87 356.064,1216.87C359.35,1210.43 370.453,1183.16 375.837,1168.31C388.792,1132.56 401.32,1080.68 405.912,1043.75C408.593,1022.19 409.041,1017.38 410.078,999C412.452,956.947 406.773,913.393 394.477,879.344C384.426,851.512 371.799,827.606 345.172,786C312.187,734.458 305.87,723.719 292.525,696.5C271.593,653.807 260.601,615.556 254.446,564C252.219,545.339 252.204,498.547 254.42,480C260.844,426.24 273.894,382.878 298.078,334.946C315.993,299.437 336.797,270.974 366.013,242C387.689,220.504 408.674,204.559 441.154,184.907C486.81,157.283 555.665,134.474 613,127.983C688.718,119.411 748.592,122.588 813.5,138.622C879.615,154.955 941.695,188.217 984.874,230.443C1035.75,280.197 1064.59,329.509 1082.86,398C1088.53,419.247 1092.25,440.193 1095.93,471.613C1098.21,491.012 1096.84,513.263 1091.4,545.5C1084.48,586.553 1087.35,597.422 1115.51,636.532C1137.95,667.709 1177.11,723.28 1181.16,729.697C1188.5,741.327 1189.77,753.598 1184.55,762.497C1179.13,771.762 1171.25,776.19 1153.37,780.028C1137.67,783.397 1133.65,785.545 1128.26,793.444C1124.04,799.63 1122.75,804.624 1122.68,815C1122.62,824.853 1124.19,831.451 1130.65,848.492C1133.15,855.088 1135.43,862.753 1135.71,865.526C1136.17,869.977 1135.91,870.952 1133.47,873.854C1131.95,875.662 1128.19,878.807 1125.11,880.842C1122.04,882.877 1119.35,885.411 1119.15,886.473C1118.94,887.536 1120.96,892.64 1123.64,897.817C1128.14,906.527 1128.5,907.762 1128.47,914.365C1128.44,923.098 1127.53,924.895 1117.58,935.765C1108.93,945.218 1105.71,950.919 1103.95,959.864C1102.48,967.319 1103.24,983.287 1105.53,993C1107.71,1002.27 1108.57,1023.41 1107.07,1031.19C1102.81,1053.36 1085.27,1071.31 1059.46,1079.91C1042.91,1085.43 1034.88,1086.26 1003,1085.74C977.942,1085.33 971.723,1084.88 951.5,1082.05C922.81,1078.03 893.054,1077.28 882,1080.3C862.034,1085.74 848.618,1097.95 840.083,1118.46C833.977,1133.12 818.072,1195.46 815.506,1214.78C814.614,1221.49 816.395,1224.61 821.691,1225.6C826.413,1226.49 838.948,1224.56 844.537,1222.09C849.385,1219.94 848.357,1222.42 856.457,1193.36C862.336,1172.28 871.503,1144.11 875.021,1136.32C878.492,1128.63 885.305,1121.68 892.801,1118.18C898.205,1115.66 899.303,1115.52 914,1115.53C925.373,1115.53 932.828,1116.11 942,1117.71C971.078,1122.76 987.422,1124.28 1013,1124.31C1034.05,1124.34 1039.32,1124.02 1050.44,1122.08C1072.47,1118.24 1085.99,1113.65 1100.36,1105.15C1117.04,1095.27 1126.65,1084.95 1135.98,1066.89C1149.43,1040.86 1150.8,1026.06 1142.88,992.558C1139.51,978.299 1139.4,970.999 1142.45,965.093C1143.37,963.316 1148.15,957.541 1153.07,952.259C1169.46,934.671 1171.57,924.539 1162.92,904.832C1161.32,901.165 1160,897.175 1160,895.966C1160,894.688 1162.3,891.286 1165.48,887.845C1169.57,883.431 1171.38,880.489 1172.6,876.297C1174.8,868.735 1174.03,863.291 1168.53,847.456C1166.05,840.33 1164.02,832.925 1164.02,831C1164,820.309 1169.99,813.077 1183.05,808.041C1208.9,798.071 1221.4,786.072 1225.6,767.188C1227.62,758.125 1227.07,738.763 1224.54,729.5C1221.82,719.579 1217.71,712.761 1195.56,681.454C1183.91,664.979 1166.08,639.783 1155.94,625.463C1125.43,582.373 1123.45,576.008 1130.95,545C1135.63,525.631 1136.49,517.56 1136.44,493C1136.4,469.279 1135.14,452.98 1131.87,434C1117.4,349.913 1091.75,290.878 1045.2,234.5C1025.65,210.831 1001.04,187.204 977.5,169.509C923.212,128.704 847.808,99.708 768.5,89.1405C733.757,84.5111 733.543,84.499 687.5,84.5443C638.869,84.5921 625.494,85.5513 589.5,91.5717C517.59,103.6 452.132,127.558 400.843,160.623C341.248,199.041 288.847,259.553 257.819,325.781C242.789,357.861 230.031,396.686 223.079,431.5C213.48,479.571 212.181,536.901 219.59,585.5C227.985,640.573 245.585,691.405 273.951,742.5C284.395,761.313 292.503,774.544 311.026,803C328.783,830.278 336.525,843.029 344.118,857.5C373.146,912.816 379.773,976.181 365.454,1061.5C357.914,1106.43 346.903,1143.68 327.464,1190.03C318.591,1211.18 317.442,1216.78 321.04,1221.33C322.27,1222.89 324.227,1224.55 325.388,1225.02C328.813,1226.4 339.128,1226.12 345.483,1224.46ZM524.633,839.37C529.377,837.119 532.002,832.191 540.439,809.696C549.676,785.068 556.346,770.001 565.759,752.5C573.976,737.221 588.381,714.757 592.136,711.365C594.263,709.444 596.005,709.177 609.5,708.704C630.627,707.963 637.228,705.864 662,692.008C667.775,688.777 673.768,685.823 675.318,685.442C678.043,684.772 677.959,684.677 672.779,682.572C669.832,681.374 663.425,677.606 658.54,674.197C653.654,670.789 648.947,668 648.079,668.001C647.21,668.001 643.575,669.392 640,671.092C631.291,675.233 620.715,677.845 609.638,678.59C601.874,679.113 598.807,678.811 589.245,676.585C577.674,673.891 573.621,673.957 572.083,676.865C571.607,677.764 570.734,681.633 570.142,685.463C568.835,693.92 563.265,705.547 552.396,722.5C533.703,751.659 517.037,785.975 508.99,811.876C506.421,820.144 505.863,823.434 506.212,828.256C506.604,833.671 507.024,834.634 510.31,837.645C514.521,841.504 518.999,842.043 524.633,839.37ZM492.174,772.75C493.03,772.062 495.334,766.1 497.293,759.5C499.252,752.9 501.115,746.825 501.433,746C501.922,744.727 500.19,744.456 490.001,744.208C482.187,744.018 475.286,743.225 470.246,741.937C444.088,735.252 425.744,716.618 424.279,695.243C423.475,683.512 423.786,682.868 433.286,676.612C443.196,670.086 452,661.18 452,657.681C452,654.152 447.609,652.604 439.752,653.364C420.065,655.268 407.554,655.216 397.789,653.19C376.086,648.687 359.949,636.411 350.876,617.5C343.58,602.294 342.193,587.174 346.554,570.391C348.041,564.668 348.843,559.506 348.475,558.031C348.127,556.639 345.798,552.394 343.3,548.598C329.33,527.372 326.118,509.08 331.87,483.499C334.943,469.832 339.79,459.197 348.075,447.944C350.73,444.338 353.374,440.146 353.951,438.628C355.3,435.081 355.281,428.408 353.894,418.098C352.229,405.729 355.388,385.951 361.047,373.313C368.783,356.036 385.023,340.316 405.39,330.389C409.785,328.246 414.366,325.181 415.733,323.468C417.083,321.776 420.782,314.712 423.954,307.769C430.761,292.869 436.248,284.838 445.747,275.877C464.667,258.029 485.148,248.488 507,247.342C521.133,246.6 523.319,245.694 529.94,237.829C545.494,219.35 563.23,210.819 589,209.421C603.731,208.622 611.741,210.26 625.963,216.982C631.801,219.742 637.949,222 639.624,222C641.486,222 645.745,220.147 650.585,217.23C660.98,210.966 670.662,206.627 680.5,203.826C691.133,200.799 715.819,200.498 726,203.271C738.874,206.779 750.608,213.469 764.626,225.293C768.403,228.479 772.594,231.362 773.94,231.7C775.286,232.038 781.812,231.566 788.443,230.651C803.208,228.615 807.93,228.591 819.663,230.494C829.23,232.046 839.997,235.5 848.5,239.744C861.275,246.121 878.478,262.241 885,273.947C890.957,284.638 892.242,285.655 903.5,288.58C929.034,295.213 949.916,309.836 959.186,327.572C964.131,337.033 965.853,343.338 967.522,358.098C968.305,365.027 969.239,371.458 969.596,372.39C969.954,373.322 974.448,377.201 979.584,381.011C994.884,392.361 1002.11,403.277 1007.23,422.786C1009.87,432.817 1010.31,436.296 1010.33,447C1010.36,461.819 1008.51,471.074 1003.32,482C1000.4,488.144 998.054,491.14 990.34,498.57C980.939,507.626 980.922,507.651 979.933,514.07C979.389,517.607 978.611,525.046 978.205,530.602L977.467,540.705L988.853,535.355C1008.05,526.334 1019.71,516.654 1028.65,502.314C1038.57,486.393 1043.11,469.22 1043.06,447.801C1043.01,426.362 1039.91,410.964 1032.44,395.148C1025.63,380.717 1017.76,370.703 1002.85,357.5C997.326,352.604 997.184,352.344 996.019,345C992.961,325.722 987.426,310.956 978.646,298.652C973.771,291.82 961.745,279.982 954.923,275.297C947.624,270.286 933.018,263.38 923.472,260.428C913.509,257.347 910.884,255.261 903.133,244.267C889.219,224.531 864.933,207.855 841,201.604C825.119,197.456 817.187,196.687 797.806,197.416L780.111,198.082L774.732,193.21C749.375,170.247 711.654,162.543 672.817,172.395C667.548,173.731 660.484,175.989 657.119,177.412C653.753,178.836 648.22,181.175 644.822,182.612L638.644,185.223L628.572,182.102C610.659,176.551 596.437,175.044 579.948,176.951C551.453,180.245 534.954,187.759 514.937,206.559C510.294,210.92 507.182,213.035 504.86,213.408C503.012,213.705 498.146,214.428 494.047,215.014C451.797,221.062 416.363,247.765 396.313,288.668C390.531,300.464 389.563,301.712 384.025,304.521C369.722,311.777 352.495,326.346 342.667,339.5C327.195,360.208 318.795,390.659 320.461,420L321.114,431.5L315.526,440.273C308.179,451.805 303.598,462.426 300.489,475.132C296.898,489.81 295.685,504.045 297.003,516.03C298.496,529.597 300.979,537.594 308.049,551.605L314.158,563.711L312.963,569.781C311.13,579.099 312.17,601.431 314.974,612.985C322.149,642.54 338.933,663.888 365.5,677.249C369.35,679.185 375.661,681.71 379.525,682.86C389.802,685.918 389.923,686.065 391.629,697.526C396.273,728.736 412.301,750.088 441.675,764.196C455.468,770.82 467.696,773.888 480.559,773.951C487.177,773.983 491.15,773.572 492.174,772.75ZM820.324,718.336C846.778,701.175 906.265,654.249 918.66,640.765C924.579,634.326 929.695,626.3 931.92,619.961C935.198,610.622 952.888,539.447 956.003,523.065C957.631,514.504 959.273,506.394 959.652,505.043C960.308,502.704 960.13,502.755 955.921,506.126C953.489,508.073 949.475,511.01 947,512.654C928.155,525.17 891.189,550.335 885.291,554.663C873.178,563.552 861.62,579.356 852.913,598.937C848.406,609.071 845.039,618.576 823.489,682C818.162,697.675 812.098,714.002 810.012,718.283C805.395,727.755 805.802,727.757 820.324,718.336ZM782.56,718.443C787.202,717.718 793.429,712.057 796.728,705.563C798.143,702.779 803.32,689.025 808.234,675C835.258,597.86 837.127,591.243 835.065,580.048C833.518,571.655 828.819,562.877 822.468,556.517C815.95,549.992 763.111,513.153 741.481,500.054C729.975,493.087 726.972,492.412 721.062,495.468C716.245,497.959 694.852,513.805 692.19,516.854C690.919,518.309 687.609,524 684.833,529.5C680.779,537.532 678.143,541.188 671.437,548.076C661.299,558.49 658.229,564.439 650.59,588.466C643.939,609.388 642.589,615.845 643.408,622.812C644.952,635.949 653.019,645.699 674.5,660.391C681.65,665.281 700.788,678.409 717.028,689.563C760.999,719.763 764.434,721.277 782.56,718.443ZM515.802,625.644C534.652,613.302 550.211,595.037 561.072,572.5C574.354,544.941 579.692,518.76 580.645,476.512C581.136,454.774 581.47,450.137 582.474,451.141C582.709,451.376 583.403,456.728 584.015,463.034C587.352,497.367 597.979,524.372 614.126,539.552C621.398,546.388 627.56,549.212 636.395,549.758C653.995,550.846 666.242,539.846 670.558,519.073C671.406,514.989 672.323,511.287 672.594,510.848C672.866,510.408 677.231,507.92 682.294,505.317C698.349,497.066 706.815,486.314 707.771,472.963C708.389,464.317 706.75,457.437 701.764,447.747C696.706,437.919 689.654,431.314 678.645,426.093C660.167,417.331 643.914,415.779 599.5,418.535C591.859,419.01 591.66,418.969 595.06,417.634C597.017,416.866 603.542,415.705 609.56,415.055C655.238,410.122 688.741,397.87 706.044,379.771C713.716,371.745 716.5,365.284 716.5,355.5C716.5,348.762 716.058,346.6 713.7,341.797C708.722,331.661 698.268,324.17 684,320.517C675.362,318.305 673.671,317.061 671.523,311.338C665.296,294.747 658.962,286.573 648.221,281.265C641.441,277.914 639.771,277.5 633.031,277.5C626.496,277.5 624.546,277.949 618.807,280.774C610.48,284.873 603.732,292.068 598.286,302.654C591.431,315.977 588.014,328.049 578.939,371C576.091,384.475 573.308,395.95 572.753,396.5C572.074,397.173 572.031,393.898 572.622,386.5C573.105,380.45 573.487,364.25 573.471,350.5C573.445,327.921 573.223,324.628 571.182,316.5C567.907,303.456 562.797,293.794 555.009,285.918C545.746,276.55 539.106,273.5 527.979,273.5C520.364,273.5 518.747,273.85 512.772,276.791C504.295,280.965 497.572,288.348 491.442,300.216C486.465,309.853 484.98,311.223 476.921,313.616C458.125,319.195 447.165,331.48 446.204,348.044C445.599,358.49 447.919,363.644 457.337,372.775C468.42,383.521 486.271,394.362 505.387,401.955C514.265,405.482 537.169,412.392 545.432,414.037C550.578,415.061 551.108,415.368 549.432,416.359C548.182,417.097 537.785,417.707 520,418.087C484.983,418.834 473.403,420.94 454.5,429.998C434.188,439.732 423.616,457.647 428.438,474.163C431.371,484.21 438.089,491.362 452,499.248L459.5,503.5L462.207,514.285C465.478,527.32 468.657,533.439 475.536,539.945C482.144,546.195 489.056,548.452 499.532,547.78C518.113,546.587 534.979,531.225 548.045,503.593C555.356,488.133 561.877,468.164 563.914,455L565.694,443.5L566.448,449.136C567.399,456.247 565.392,493.976 563.41,506.229C558.76,534.983 548.778,560.202 534.577,579.079C525.52,591.118 513.704,600.146 500.57,605.06C497.598,606.172 493.956,608.033 492.477,609.196C490.227,610.967 489.878,611.863 490.338,614.697C491.118,619.505 494.614,624.708 499.391,628.17C504.534,631.897 506.779,631.552 515.802,625.644ZM866.956,542.939C874.206,540.292 951.319,489.589 956.5,484.063C959.216,481.166 959.499,480.232 959.495,474.182C959.484,461.039 952.803,452.514 930.956,437.766C924.655,433.512 909.825,423.3 898,415.073C841.171,375.533 838.48,373.899 827.22,372.103C818.922,370.78 811.828,371.679 804.5,374.984C797.41,378.182 725.856,424.855 721.5,429.123C718.525,432.039 718.501,432.146 718.677,442.299C718.88,453.99 721.041,461.276 726.384,468.281C729.63,472.537 744.122,482.759 799.582,519.908C833.475,542.611 841.184,546.253 854,545.619C857.575,545.442 863.405,544.236 866.956,542.939ZM878,351.894C878,341.471 869.134,322.637 859.147,311.845C843.274,294.692 820.529,286.325 803.614,291.416C795.092,293.98 788.221,300.762 789.398,305.448C790.159,308.48 794.861,309.986 803.59,309.994C816.594,310.006 836.813,317.66 849.816,327.493C853.29,330.12 860.229,337.177 865.237,343.176C871.011,350.094 874.846,353.889 875.722,353.553C876.482,353.261 876.829,353.468 876.493,354.011C876.157,354.555 876.359,355 876.941,355C877.523,355 878,353.602 878,351.894ZM861.4,652.26C856.113,648.608 858.103,636.978 865.971,625.542C875.097,612.277 888.784,614.889 884.962,629.166C881.738,641.212 866.718,655.933 861.4,652.26ZM904,593.037C893.891,590.545 912.381,559 923.95,559C926.873,559 930,562.517 930,565.804C930,570.457 924.976,579.139 918.558,585.575C912.17,591.981 908.125,594.055 904,593.037ZM759.5,681.516C740.277,676.402 740.787,645.034 760.093,645.007C773.208,644.988 784.305,660.152 779.534,671.574C777.461,676.536 773.55,680.655 770.14,681.467C768.688,681.812 766.825,682.264 766,682.471C765.175,682.677 762.25,682.248 759.5,681.516ZM683.083,633.612C676.7,631.305 671,622.289 671,614.5C671,609.345 673.31,603.935 676.831,600.843C680.044,598.023 680.776,597.816 686.17,598.206C691.157,598.567 692.532,599.124 695.471,601.971C705.689,611.876 703.101,630.655 691.057,634.001C686.898,635.156 687.423,635.182 683.083,633.612ZM732.84,617.978C727.987,615.414 725.292,611.812 723.427,605.396C718.864,589.701 732.193,578.074 746.698,585.096C755.34,589.28 759.471,602.263 755.06,611.376C753.812,613.954 751.43,616.807 749.561,617.962C745.31,620.59 737.797,620.597 732.84,617.978ZM789.951,608.673C782.835,606.321 778.532,601.212 777.06,593.367C775.286,583.92 779.662,574.976 787.027,572.993C799.576,569.614 812.573,583.732 809.029,596.893C807.562,602.34 802.742,607.7 798.168,608.97C793.91,610.153 794.491,610.174 789.951,608.673ZM708,556.753C701.305,553.173 697.686,547.435 697.188,539.609C696.679,531.625 698.754,526.852 704.337,523.161C713.22,517.288 725.635,520.97 730.813,531.013C733.802,536.811 733.594,547.388 730.407,551.656C724.924,559.001 716.001,561.031 708,556.753ZM835.5,514.134C830.321,511.776 824.287,505.045 823.476,500.721C821.579,490.612 831.452,484.293 844.815,487.064C851.869,488.526 858.423,494.409 859.522,500.264C861.588,511.28 847.321,519.518 835.5,514.134ZM892.115,480.499C886.658,478.797 881.295,473.718 879.845,468.876C877.701,461.722 884.207,453.841 893.394,452.464C899.785,451.505 905.604,453.516 910.888,458.509C915.284,462.662 915.5,463.124 915.5,468.367C915.5,473.03 915.073,474.314 912.7,476.791C907.951,481.748 900.453,483.099 892.115,480.499ZM768.5,467.024C763.36,464.447 758.204,458.603 757.429,454.476C756.635,450.238 759.093,445.521 763.203,443.395C765.522,442.196 768.008,441.887 772.466,442.245C783.578,443.137 790.773,448.81 791.747,457.448C792.162,461.133 791.82,462.17 789.231,465.067C786.457,468.173 785.725,468.444 779.367,468.725C774.051,468.961 771.597,468.576 768.5,467.024ZM823.459,433.633C816.949,430.602 813,425.967 813,421.358C813,414.232 817.302,410.986 826.7,411.022C833.646,411.048 839.546,413.483 843.207,417.834C853.231,429.747 839.208,440.967 823.459,433.633Z" fill-rule="evenodd" fill="#000000"/>
</g>
</svg>
